<?xml version="1.0" encoding="UTF-8"?>
<svg width="26px" height="40px" viewBox="0 0 26 40" version="1.1" xmlns="http://www.w3.org/2000/svg" xmlns:xlink="http://www.w3.org/1999/xlink">
    <!-- Generator: Sketch 50.2 (55047) - http://www.bohemiancoding.com/sketch -->
    <title>icon-MobileDevice-blueblack</title>
    <desc>Created with Sketch.</desc>
    <defs>
        <rect id="path-1" x="0" y="0" width="48" height="48"></rect>
        <path d="M20.5520633,24.4657418 C20.3688538,24.758286 19.9831792,24.8469193 19.690635,24.6637098 C19.3980908,24.4805003 19.3094575,24.0948257 19.492667,23.8022815 L23.7982226,16.9272815 C23.9814321,16.6347373 24.3671066,16.5461041 24.6596508,16.7293136 C24.952195,16.9125231 25.0408283,17.2981976 24.8576188,17.5907418 L20.5520633,24.4657418 Z M20.859603,30.4032418 C20.6763935,30.695786 20.2907189,30.7844193 19.9981747,30.6012098 C19.7056305,30.4180003 19.6169972,30.0323257 19.8002067,29.7397815 L28.4113178,15.9897815 C28.5945273,15.6972373 28.9802019,15.6086041 29.2727461,15.7918136 C29.5652903,15.9750231 29.6539236,16.3606976 29.4707141,16.6532418 L20.859603,30.4032418 Z M13.262818,10.25 L13.262818,37.75 L36.6159926,37.75 L36.6159926,10.25 L13.262818,10.25 Z M12.637818,9 L37.2409926,9 C37.5861706,9 37.8659926,9.27982203 37.8659926,9.625 L37.8659926,38.375 C37.8659926,38.720178 37.5861706,39 37.2409926,39 L12.637818,39 C12.29264,39 12.012818,38.720178 12.012818,38.375 L12.012818,9.625 C12.012818,9.27982203 12.29264,9 12.637818,9 Z M34.7678559,4 C36.4740791,4 37.8531731,5.40132222 37.8531746,7.125 L37.8531746,9.625 C37.8531746,9.97017797 37.5733526,10.25 37.2281746,10.25 L12.625,10.25 C12.279822,10.25 12,9.97017797 12,9.625 L12,7.125 C12,5.40131096 13.3790679,4 15.0853175,4 L34.7678559,4 Z M36.6031746,9 L36.6031746,7.12500056 C36.6031737,6.08724435 35.77921,5.25 34.7678559,5.25 L15.0853175,5.25 C14.0739403,5.25 13.25,6.08722967 13.25,7.125 L13.25,9 L36.6031746,9 Z M12.012818,40.875 L12.012818,38.375 C12.012818,38.029822 12.29264,37.75 12.637818,37.75 L37.2409926,37.75 C37.5861706,37.75 37.8659926,38.029822 37.8659926,38.375 L37.8659926,40.875 C37.8659926,42.5986509 36.4868871,44 34.7806752,44 L15.0981355,44 C13.3918974,44 12.012818,42.5986626 12.012818,40.875 Z M13.262818,39 L13.262818,40.875 C13.262818,41.9127468 14.0867728,42.75 15.0981355,42.75 L34.7806752,42.75 C35.7920147,42.75 36.6159926,41.9127321 36.6159926,40.875 L36.6159926,39 L13.262818,39 Z" id="path-3"></path>
    </defs>
    <g id="Design-System" stroke="none" stroke-width="1" fill="none" fill-rule="evenodd">
        <g id="Iconography" transform="translate(-336.000000, -1917.000000)">
            <g id="Group-5" transform="translate(80.000000, 1055.000000)">
                <g id="Row" transform="translate(1.000000, 858.000000)">
                    <g id="Icon-/-Mobile-Device" transform="translate(243.000000, 0.000000)">
                        <mask id="mask-2" fill="white">
                            <use xlink:href="#path-1"></use>
                        </mask>
                        <g id="Container" fill-rule="nonzero"></g>
                        <mask id="mask-4" fill="white">
                            <use xlink:href="#path-3"></use>
                        </mask>
                        <use id="Mobile" fill="#000000" fill-rule="nonzero" xlink:href="#path-3"></use>
                        <g id="Style-/-Color-/-Blue-Black" mask="url(#mask-4)" fill="#000015" fill-rule="evenodd">
                            <rect id="Container" x="0" y="0" width="48" height="48"></rect>
                        </g>
                    </g>
                </g>
            </g>
        </g>
    </g>
</svg>