<?xml version="1.0" encoding="UTF-8"?>
<svg width="40px" height="40px" viewBox="0 0 40 40" version="1.1" xmlns="http://www.w3.org/2000/svg" xmlns:xlink="http://www.w3.org/1999/xlink">
    <!-- Generator: Sketch 50.2 (55047) - http://www.bohemiancoding.com/sketch -->
    <title>icon-help-white</title>
    <desc>Created with Sketch.</desc>
    <defs>
        <rect id="path-1" x="0" y="0" width="48" height="48"></rect>
        <path d="M24,4 C12.9650727,4 4,12.9651045 4,24 C4,35.0349545 12.9650727,44 24,44 C35.0349273,44 44,35.0349545 44,24 C44,12.9651045 35.0349273,4 24,4 Z M24,5.81818182 C27.5396295,5.81818182 30.8393818,6.82944182 33.6306818,8.57386364 L29.9659091,12.2528409 C28.1728823,11.3386314 26.14673,10.8181818 24,10.8181818 C21.85327,10.8181818 19.8271177,11.3386314 18.0340909,12.2528409 L14.3693182,8.57386364 C17.1606182,6.82944182 20.4603705,5.81818182 24,5.81818182 Z M12.8494318,9.63920455 L16.4289773,13.2045455 C15.1811373,14.0818018 14.0978609,15.1683273 13.21875,16.4147727 L9.63920455,12.8494318 C10.5698395,11.6524177 11.652415,10.5698373 12.8494318,9.63920455 Z M35.1505682,9.63920455 C36.347585,10.5698373 37.4301605,11.6524177 38.3607955,12.8494318 L34.78125,16.4147727 C33.9021391,15.1683273 32.8188627,14.0818018 31.5710227,13.2045455 L35.1505682,9.63920455 Z M24,12.6363636 C30.2867323,12.6363636 35.3636364,17.7132591 35.3636364,24 C35.3636364,30.2867273 30.2867323,35.3636364 24,35.3636364 C17.7132682,35.3636364 12.6363636,30.2867273 12.6363636,24 C12.6363636,17.7132591 17.7132682,12.6363636 24,12.6363636 Z M8.57386364,14.3551136 L12.2528409,18.0340909 C11.3386318,19.8271191 10.8181818,21.8532673 10.8181818,24 C10.8181818,26.1467341 11.3386318,28.1728845 12.2528409,29.9659091 L8.57386364,33.6448864 C6.82558727,30.8514655 5.81818182,27.5438655 5.81818182,24 C5.81818182,20.4561395 6.82558727,17.148525 8.57386364,14.3551136 Z M39.4261364,14.3551136 C41.1744127,17.148525 42.1818182,20.4561395 42.1818182,24 C42.1818182,27.5438655 41.1744127,30.8514655 39.4261364,33.6448864 L35.7471591,29.9659091 C36.6613682,28.1728845 37.1818182,26.1467341 37.1818182,24 C37.1818182,21.8532673 36.6613682,19.8271191 35.7471591,18.0340909 L39.4261364,14.3551136 Z M13.21875,31.5852273 C14.0978609,32.8316691 15.1811373,33.9182018 16.4289773,34.7954545 L12.8494318,38.3607955 C11.652415,37.4301591 10.5698395,36.3475868 9.63920455,35.1505682 L13.21875,31.5852273 Z M34.78125,31.5852273 L38.3607955,35.1505682 C37.4301605,36.3475868 36.347585,37.4301591 35.1505682,38.3607955 L31.5710227,34.7954545 C32.8188627,33.9182018 33.9021391,32.8316691 34.78125,31.5852273 Z M18.0340909,35.7471591 C19.8271177,36.6613645 21.85327,37.1818182 24,37.1818182 C26.14673,37.1818182 28.1728823,36.6613645 29.9659091,35.7471591 L33.6306818,39.4261364 C30.8393818,41.1705659 27.5396295,42.1818182 24,42.1818182 C20.4603705,42.1818182 17.1606182,41.1705659 14.3693182,39.4261364 L18.0340909,35.7471591 Z" id="path-3"></path>
    </defs>
    <g id="Design-System" stroke="none" stroke-width="1" fill="none" fill-rule="evenodd">
        <g id="Iconography" transform="translate(-823.000000, -455.000000)">
            <g id="Group-3" transform="translate(800.000000, 282.000000)">
                <g id="White" transform="translate(0.000000, 65.000000)">
                    <g id="Icon-/-Help-(Preserver)" transform="translate(19.000000, 104.000000)">
                        <mask id="mask-2" fill="white">
                            <use xlink:href="#path-1"></use>
                        </mask>
                        <g id="Container" fill-rule="nonzero"></g>
                        <mask id="mask-4" fill="white">
                            <use xlink:href="#path-3"></use>
                        </mask>
                        <use id="Preserver" fill="#000000" fill-rule="nonzero" xlink:href="#path-3"></use>
                        <g id="Style-/-Color-/-White" mask="url(#mask-4)" fill="#FFFFFF" fill-rule="evenodd">
                            <rect id="Container" x="0" y="0" width="48" height="48"></rect>
                        </g>
                    </g>
                </g>
            </g>
        </g>
    </g>
</svg>